<svg id="Flat" height="512" viewBox="0 0 512 512" width="512" xmlns="http://www.w3.org/2000/svg"><path d="m72 112v24l24 352h192l24-352v-24z" fill="#fae8d8"/><path d="m306 224-9.82 144h-208.36l-9.82-144z" fill="#93573d"/><path d="m88 24h208a16 16 0 0 1 16 16v56a0 0 0 0 1 0 0h-240a0 0 0 0 1 0 0v-56a16 16 0 0 1 16-16z" fill="#93573d"/><path d="m72 88h240a16 16 0 0 1 16 16v32a0 0 0 0 1 0 0h-272a0 0 0 0 1 0 0v-32a16 16 0 0 1 16-16z" fill="#794832"/><g fill="#f5cbaa"><path d="m91.39 392.71-3.39-.71"/><rect height="48" rx="24" width="80" x="64" y="224"/><rect height="48" rx="24" width="80" x="64" y="272"/><rect height="48" rx="24" width="80" x="64" y="320"/><rect height="48" rx="24" width="64" x="64" y="368"/></g><path d="m120 280h-32a8 8 0 0 1 0-16h32a8 8 0 0 1 0 16z" fill="#deb89a"/><path d="m120 328h-32a8 8 0 0 1 0-16h32a8 8 0 0 1 0 16z" fill="#deb89a"/><path d="m112 376h-24a8 8 0 0 1 0-16h24a8 8 0 0 1 0 16z" fill="#deb89a"/><path d="m448 300v136a4 4 0 0 1 -4 4h-34.892a4 4 0 0 0 -2.058.57l-25.319 15.192a36 36 0 0 1 -29.044 3.558l-58.41-17.852a4 4 0 0 1 -2.821-4.1l5.014-73.611 4.8-70.362a4.006 4.006 0 0 0 -.662-2.491l-27.418-41.126a4 4 0 0 0 -3.331-1.778h-41.859a28 28 0 0 1 -28-28 28 28 0 0 1 28-28h51.274a3.988 3.988 0 0 1 1.4.255l26.8 10.055.96.36 34.529 12.943a4 4 0 0 1 1.719 1.247l62.118 77.64a4 4 0 0 0 3.123 1.5h34.077a4 4 0 0 1 4 4z" fill="#f5cbaa"/></svg>