<svg id="ewallet_linkaja" data-name="ewallet/linkaja" xmlns="http://www.w3.org/2000/svg" width="70" height="50" viewBox="0 0 70 50">
  <g id="LINKAJA">
    <rect id="Background" width="70" height="50" rx="4" fill="#e82529"/>
    <g id="logo" transform="translate(17 8)">
      <path id="shape" d="M2.244,34.754C1.495,34.346.749,33.931,0,33.521c2.161-.557,4.352-.986,6.548-1.381,4.536-.8,9.111-1.38,13.7-1.807a115.876,115.876,0,0,1,12.622-.474c1.68.034,3.361.109,5.035.255.443.043.887.074,1.327.145-3.048.04-6.095.2-9.134.443q-5.639.447-11.24,1.261c-4.131.6-8.248,1.319-12.311,2.286-.95.222-1.9.463-2.843.693a2.046,2.046,0,0,1-1.458-.187ZM11.9,28.794c-.189-.577-.378-1.155-.562-1.733a.221.221,0,0,1,.145-.3,8.265,8.265,0,0,0,1.057-.48,2.25,2.25,0,0,0,.919-.92,5.081,5.081,0,0,0,.411-1.622c.329-2.2.619-4.4.924-6.6a.4.4,0,0,1,.3-.357c.419-.016.842-.014,1.264-.012.291,0,.582,0,.873,0h.07a.365.365,0,0,1,.3.084.349.349,0,0,1,.066.322c-.2,1.483-.383,2.968-.592,4.45a33.725,33.725,0,0,1-.552,3.5,6.508,6.508,0,0,1-.876,2.1,4.508,4.508,0,0,1-1.978,1.451,7.208,7.208,0,0,1-1.464.443H12.17C12.006,29.115,11.947,28.921,11.9,28.794Zm16.237-2.379a1.278,1.278,0,0,1-.591-1.042A1.92,1.92,0,0,1,29,23.556a1.649,1.649,0,0,1,1.17.113,1.351,1.351,0,0,1,.711,1.244,1.908,1.908,0,0,1-1.246,1.633,1.8,1.8,0,0,1-.638.118A1.534,1.534,0,0,1,28.135,26.415ZM21.527,25.7a3.976,3.976,0,0,1-2.4-.85,3.127,3.127,0,0,1-.864-2.231,8.922,8.922,0,0,1,.31-2.735,4.452,4.452,0,0,1,1.567-2.416,4.962,4.962,0,0,1,2.837-.86c.17-.009.344-.014.516-.014a10.707,10.707,0,0,1,2.813.387c.067.021.138.037.206.053a1.347,1.347,0,0,1,.428.152.369.369,0,0,1,.1.374q-.165,1.3-.329,2.6l-.005.039q-.244,1.94-.491,3.88c-.013.071-.02.145-.027.217a1.252,1.252,0,0,1-.114.485.748.748,0,0,1-.438.33,8.825,8.825,0,0,1-3.28.625C22.082,25.742,21.8,25.729,21.527,25.7Zm.427-6.12a2.652,2.652,0,0,0-.527,1.213,3.294,3.294,0,0,0-.049,1.6,1.007,1.007,0,0,0,.77.734,1.96,1.96,0,0,0,.354.031A3.627,3.627,0,0,0,23.477,23l.489-3.809a6.234,6.234,0,0,0-.788-.135c-.04,0-.08-.005-.121-.005A1.465,1.465,0,0,0,21.954,19.583ZM10.49,25.52H9.76a.416.416,0,0,1-.4-.374c-.03-.282-.057-.569-.084-.846-.03-.315-.06-.638-.1-.955a.144.144,0,0,0-.145-.139H9.014c-.373,0-.747,0-1.094,0H6.108c-.108,0-.169.034-.189.1-.131.3-.263.613-.391.912-.14.329-.283.666-.427,1a.418.418,0,0,1-.385.251H4.7c-.795.006-1.612.013-2.418.013a.19.19,0,0,1-.031,0,.229.229,0,0,1-.2-.121.221.221,0,0,1,0-.225Q3.382,22.2,4.708,19.261q1.027-2.276,2.055-4.553a1.389,1.389,0,0,1,.884-.8,1.869,1.869,0,0,1,.545-.06H9.311c.2,0,.366,0,.517,0a.959.959,0,0,1,.917.8l.77,4.591.006.034q.489,2.916.976,5.833a.318.318,0,0,1-.059.275.3.3,0,0,1-.239.125c-.3,0-.612,0-1,0ZM8.42,17.177c-.268.65-.53,1.317-.783,1.961-.185.469-.374.951-.565,1.425,0,.012-.009.026-.014.041-.026.063-.058.141.021.176.193.005.4.007.662.007h.428l.347,0h.162a.169.169,0,0,0,.13-.062.139.139,0,0,0,.03-.122c-.086-1-.18-2.02-.271-3l-.031-.341a.08.08,0,0,0-.016-.07.07.07,0,0,0-.054-.028A.066.066,0,0,0,8.42,17.177ZM28.661,22.64a.284.284,0,0,1-.275-.345q.321-3.339.643-6.676a.353.353,0,0,1,.271-.33,1.385,1.385,0,0,1,.362-.027h.131c.266,0,.534,0,.8,0,.4,0,.8,0,1.2.009.189.02.22.247.179.4q-.68,3.363-1.362,6.728a.285.285,0,0,1-.3.247l-.947,0Q29.012,22.643,28.661,22.64Zm-13.191-6.9A1.243,1.243,0,0,1,15.1,14.8a2.025,2.025,0,0,1,1.582-1.868,1.412,1.412,0,0,1,.987.137,1.307,1.307,0,0,1,.625,1.218,2.008,2.008,0,0,1-1.687,1.8,1.4,1.4,0,0,1-.193.013A1.347,1.347,0,0,1,15.47,15.736Zm16.782-1.764a.331.331,0,0,1-.323-.229Q30.5,10.637,29.07,7.533,30.533,5.828,32,4.12a.5.5,0,0,1,.412-.19c.857,0,1.714-.005,2.57,0a.215.215,0,0,1,.13.375q-1.492,1.656-2.989,3.307,1.369,2.935,2.738,5.871a.328.328,0,0,1-.289.486l-1.157,0ZM5.11,12.573a2.78,2.78,0,0,1-2.565-1.62,1.986,1.986,0,0,1-.123-1.03Q3,5.585,3.577,1.248A.317.317,0,0,1,3.789.964C4.167.937,4.547.941,4.928.945c.231,0,.464,0,.695,0,.1,0,.2,0,.3,0,.157,0,.316,0,.473.006a.3.3,0,0,1,.274.353C6.3,3.956,5.9,6.6,5.527,9.256a.512.512,0,0,0,.511.59q1.266,0,2.533,0h1.773a.2.2,0,0,1,.235.231c-.105.753-.22,1.5-.33,2.257a.253.253,0,0,1-.259.237H5.11Zm20.172-.285q.8-5.805,1.606-11.606c.009-.068.026-.15.1-.179A9.157,9.157,0,0,1,27.9.483c.186,0,.374,0,.56,0,.166,0,.332,0,.5,0,.227,0,.454,0,.68,0a.163.163,0,0,1,.171.2q-.8,5.8-1.6,11.6c-.013.08-.026.178-.111.214a.952.952,0,0,1-.231.018h-.075q-.579,0-1.156,0c-.385,0-.77,0-1.156,0l-.025,0A.182.182,0,0,1,25.282,12.288Zm-1.795.2c-.315,0-.63,0-.944,0-.458,0-.916,0-1.374,0a.283.283,0,0,1-.257-.354c.155-1.08.306-2.161.471-3.239A13.71,13.71,0,0,0,21.6,7.1a1.113,1.113,0,0,0-.205-.784,1.391,1.391,0,0,0-.838-.347,4.141,4.141,0,0,0-1.169.056q-.456,3.213-.912,6.425a2.236,2.236,0,0,0-1.662-.575,2.531,2.531,0,0,0-1.222.458c.283-1.948.563-3.9.858-5.845.087-.521.149-1.048.281-1.562a1.369,1.369,0,0,1,.454-.784,2.539,2.539,0,0,1,1.211-.386,26.238,26.238,0,0,1,2.726-.114,3.715,3.715,0,0,1,2.395.756,2.978,2.978,0,0,1,1,2.041A7.311,7.311,0,0,1,24.4,8.084c-.184,1.387-.4,2.769-.6,4.153a.271.271,0,0,1-.272.257ZM11.03,12.236c.371-2.689.752-5.377,1.125-8.066a.326.326,0,0,1,.2-.29.765.765,0,0,1,.222-.021h.076c.321,0,.643,0,.964,0,.4,0,.795,0,1.193,0a.3.3,0,0,1,.286.365q-.551,3.957-1.111,7.911a.354.354,0,0,1-.355.351q-1.184,0-2.366,0l-.028,0A.215.215,0,0,1,11.03,12.236ZM12.9,2.906a1.247,1.247,0,0,1-.453-1.038A2.028,2.028,0,0,1,14,.038,1.41,1.41,0,0,1,15.05.187a1.313,1.313,0,0,1,.594,1.219,2.016,2.016,0,0,1-1.607,1.773,1.484,1.484,0,0,1-.27.025A1.348,1.348,0,0,1,12.9,2.906Z" fill="#fefefe"/>
    </g>
  </g>
</svg>
