<?xml version="1.0" encoding="UTF-8"?><svg xmlns="http://www.w3.org/2000/svg" xmlns:xlink="http://www.w3.org/1999/xlink" version="1.1" id="Layer_1" x="0px" y="0px" viewBox="0 0 24 24" xml:space="preserve"><path fill="#68B345" d="M23.192 13.86c.38-.534.808-1.14.808-1.86s-.429-1.326-.808-1.86c-.248-.351-.483-.683-.564-.988-.088-.326-.05-.745-.01-1.188.06-.672.122-1.366-.224-1.965-.353-.609-1.02-.916-1.609-1.187-.398-.185-.774-.358-1.007-.59-.232-.232-.406-.609-.59-1.008-.271-.588-.579-1.256-1.186-1.607-.6-.346-1.292-.284-1.967-.225-.443.04-.861.077-1.187-.01-.305-.081-.636-.316-.988-.564C13.326.429 12.72 0 12 0s-1.326.43-1.86.808c-.352.248-.683.483-.988.565-.327.087-.745.049-1.187.01-.671-.06-1.367-.123-1.966.223-.608.352-.916 1.02-1.187 1.608-.184.399-.358.776-.59 1.008s-.609.405-1.008.59c-.588.27-1.255.578-1.608 1.187-.346.598-.284 1.293-.223 1.965.039.443.077.862-.01 1.188-.082.305-.317.637-.565.988C.428 10.674 0 11.28 0 12s.429 1.326.808 1.86c.248.351.483.683.564.988.088.326.05.745.01 1.188-.06.672-.122 1.366.224 1.965.353.609 1.02.916 1.609 1.187.398.185.774.358 1.007.59.232.232.406.609.59 1.008.271.588.579 1.256 1.186 1.607.599.346 1.293.284 1.967.225.442-.04.861-.077 1.187.01.305.081.636.316.988.564.534.379 1.14.808 1.86.808s1.326-.43 1.86-.808c.352-.248.683-.483.988-.565.327-.087.745-.049 1.187-.01.672.061 1.368.124 1.966-.223.608-.352.916-1.02 1.187-1.608.184-.399.358-.776.59-1.008s.609-.405 1.008-.59c.588-.27 1.255-.578 1.608-1.187.346-.598.284-1.293.223-1.965-.039-.443-.077-.862.01-1.188.082-.305.317-.637.565-.988z"/><linearGradient id="SVGID_1_" gradientUnits="userSpaceOnUse" x1="245.6316528" y1="-316.1273499" x2="256.9058533" y2="-304.8531494" gradientTransform="matrix(-1 0 0 -1 264 -300)"><stop offset="0" stop-color="#010101" stop-opacity="0.1"/><stop offset="1" stop-color="#010101" stop-opacity="0"/></linearGradient><path fill="url(#SVGID_1_)" d="M22.628 9.152c-.088-.326-.05-.745-.01-1.188.06-.672.122-1.366-.224-1.965-.353-.609-1.02-.916-1.609-1.187-.398-.185-.774-.358-1.007-.59-.232-.232-.406-.609-.59-1.008-.271-.588-.579-1.256-1.186-1.607-.599-.346-1.293-.284-1.967-.225-.442.04-.861.077-1.187-.01-.305-.081-.636-.316-.988-.564C13.326.429 12.72 0 12 0s-1.326.43-1.86.808c-.352.248-.683.483-.988.565-.327.087-.745.049-1.187.01-.672-.061-1.368-.124-1.966.223-.608.352-.916 1.02-1.187 1.608-.184.399-.358.776-.59 1.008s-.609.405-1.008.59c-.588.27-1.255.578-1.608 1.187-.346.598-.284 1.293-.223 1.965.039.443.077.862-.01 1.188-.082.305-.317.637-.565.988C.428 10.674 0 11.28 0 12h24c0-.72-.429-1.326-.808-1.86-.248-.351-.483-.683-.564-.988z"/><path opacity="0.2" fill="#FFF" d="M3.214 5.062c.4-.185.775-.358 1.008-.59s.406-.61.59-1.008c.271-.589.579-1.256 1.187-1.608.599-.346 1.295-.283 1.966-.224.442.04.86.078 1.187-.01.305-.081.636-.316.988-.564C10.674.679 11.28.25 12 .25s1.326.43 1.86.808c.352.248.683.483.988.565.326.086.744.05 1.187.01.675-.06 1.367-.122 1.967.224.607.351.915 1.019 1.186 1.607.184.4.358.776.59 1.008.233.232.609.405 1.007.59.589.27 1.256.578 1.609 1.187.172.298.243.62.263.95.002-.418-.048-.828-.263-1.2-.353-.609-1.02-.916-1.609-1.187-.398-.185-.774-.358-1.007-.59-.232-.232-.406-.609-.59-1.008-.271-.588-.579-1.256-1.186-1.607-.6-.346-1.292-.284-1.967-.225-.443.04-.861.077-1.187-.01-.305-.081-.636-.316-.988-.564C13.326.429 12.72 0 12 0s-1.326.43-1.86.808c-.352.248-.683.483-.988.565-.327.087-.745.049-1.187.01-.671-.06-1.367-.123-1.966.223-.608.352-.916 1.02-1.187 1.608-.184.399-.358.776-.59 1.008s-.609.405-1.008.59c-.588.27-1.255.578-1.608 1.187-.215.372-.265.782-.263 1.2.02-.33.091-.653.263-.95.353-.609 1.02-.916 1.608-1.187z"/><path opacity="0.1" fill="#010101" d="M20.786 18.938c-.4.185-.775.358-1.008.59s-.406.61-.59 1.008c-.271.589-.579 1.256-1.187 1.608-.598.347-1.294.284-1.966.224-.442-.04-.86-.078-1.187.01-.305.081-.636.316-.988.564-.534.379-1.14.808-1.86.808s-1.326-.43-1.86-.808c-.352-.248-.683-.483-.988-.565-.326-.086-.745-.05-1.187-.01-.674.06-1.368.122-1.967-.224-.607-.351-.915-1.019-1.186-1.607-.184-.4-.358-.776-.59-1.008-.233-.232-.609-.405-1.007-.59-.589-.27-1.256-.578-1.609-1.187a2.12 2.12 0 0 1-.263-.95c-.002.418.048.828.263 1.2.353.609 1.02.916 1.609 1.187.398.185.774.358 1.007.59.232.232.406.609.59 1.008.271.588.579 1.256 1.186 1.607.599.346 1.293.284 1.967.225.442-.04.861-.077 1.187.01.305.081.636.316.988.564.534.379 1.14.808 1.86.808s1.326-.43 1.86-.808c.352-.248.683-.483.988-.565.327-.087.745-.049 1.187-.01.672.061 1.368.124 1.966-.223.608-.352.916-1.02 1.187-1.608.184-.399.358-.776.59-1.008s.609-.405 1.008-.59c.588-.27 1.255-.578 1.608-1.187.215-.372.265-.782.263-1.2-.02.33-.091.653-.263.95-.353.609-1.02.916-1.608 1.187z"/><path fill="#FFF" d="M9.5 14.5h3v-1h-2v-1H12v-1h-1.5v-1h2v-1h-3z"/><path fill="#FFF" d="M7 9.5H5.5v5h1v-4H7a.5.5 0 0 1 .5.5v3.5h1V11c0-.827-.673-1.5-1.5-1.5z"/><path fill="#FFF" d="M17.5 9.5v3l-.5 1-.5-1v-3h-1v3l-.5 1-.5-1v-3h-1v3l1 2h1l.5-1 .5 1h1l1-2v-3z"/><linearGradient id="SVGID_2_" gradientUnits="userSpaceOnUse" x1="1.1577362" y1="6.9442105" x2="22.8422318" y2="17.0558567"><stop offset="0" stop-color="#FFF" stop-opacity="0.2"/><stop offset="1" stop-color="#FFF" stop-opacity="0"/></linearGradient><path fill="url(#SVGID_2_)" d="M23.192 13.86c.38-.534.808-1.14.808-1.86s-.429-1.326-.808-1.86c-.248-.351-.483-.683-.564-.988-.088-.326-.05-.745-.01-1.188.06-.672.122-1.366-.224-1.965-.353-.609-1.02-.916-1.609-1.187-.398-.185-.774-.358-1.007-.59-.232-.232-.406-.609-.59-1.008-.271-.588-.579-1.256-1.186-1.607-.6-.346-1.292-.284-1.967-.225-.443.04-.861.077-1.187-.01-.305-.081-.636-.316-.988-.564C13.326.429 12.72 0 12 0s-1.326.43-1.86.808c-.352.248-.683.483-.988.565-.327.087-.745.049-1.187.01-.671-.06-1.367-.123-1.966.223-.608.352-.916 1.02-1.187 1.608-.184.399-.358.776-.59 1.008s-.609.405-1.008.59c-.588.27-1.255.578-1.608 1.187-.346.598-.284 1.293-.223 1.965.039.443.077.862-.01 1.188-.082.305-.317.637-.565.988C.428 10.674 0 11.28 0 12s.429 1.326.808 1.86c.248.351.483.683.564.988.088.326.05.745.01 1.188-.06.672-.122 1.366.224 1.965.353.609 1.02.916 1.609 1.187.398.185.774.358 1.007.59.232.232.406.609.59 1.008.271.588.579 1.256 1.186 1.607.599.346 1.293.284 1.967.225.442-.04.861-.077 1.187.01.305.081.636.316.988.564.534.379 1.14.808 1.86.808s1.326-.43 1.86-.808c.352-.248.683-.483.988-.565.327-.087.745-.049 1.187-.01.672.061 1.368.124 1.966-.223.608-.352.916-1.02 1.187-1.608.184-.399.358-.776.59-1.008s.609-.405 1.008-.59c.588-.27 1.255-.578 1.608-1.187.346-.598.284-1.293.223-1.965-.039-.443-.077-.862.01-1.188.082-.305.317-.637.565-.988z"/><metadata><rdf:RDF xmlns:rdf="http://www.w3.org/1999/02/22-rdf-syntax-ns#" xmlns:rdfs="http://www.w3.org/2000/01/rdf-schema#" xmlns:dc="http://purl.org/dc/elements/1.1/"><rdf:Description about="https://iconscout.com/legal#licenses" dc:title="new,sticker,label,shop,sale" dc:description="new,sticker,label,shop,sale" dc:publisher="Iconscout" dc:date="2017-10-09" dc:format="image/svg+xml" dc:language="en"><dc:creator><rdf:Bag><rdf:li>Those Icons</rdf:li></rdf:Bag></dc:creator></rdf:Description></rdf:RDF></metadata></svg>