<?xml version="1.0" standalone="no"?>
<!DOCTYPE svg PUBLIC "-//W3C//DTD SVG 20010904//EN"
 "http://www.w3.org/TR/2001/REC-SVG-20010904/DTD/svg10.dtd">
<svg version="1.0" xmlns="http://www.w3.org/2000/svg"
 width="700.000000pt" height="700.000000pt" viewBox="0 0 700.000000 700.000000"
 preserveAspectRatio="xMidYMid meet">
<metadata>
Created by potrace 1.11, written by Peter Selinger 2001-2013
</metadata>
<g transform="translate(0.000000,700.000000) scale(0.100000,-0.100000)"
fill="#000000" stroke="none">
<path d="M1646 6590 c1 -225 -1 -410 -5 -411 -3 -1 -188 -2 -411 -3 l-405 -1
-1 -400 c0 -220 1 -405 4 -411 2 -9 65 -12 221 -10 211 1 217 0 217 -19 1 -23
14 -204 19 -255 2 -19 6 -86 10 -148 4 -63 8 -123 10 -135 2 -12 6 -71 10
-132 4 -60 8 -128 10 -150 2 -22 4 -67 5 -100 2 -33 6 -67 11 -75 6 -13 -12
-15 -139 -15 -81 1 -153 -1 -160 -3 -11 -4 -12 -24 -7 -91 6 -91 11 -168 20
-316 3 -49 7 -121 10 -160 7 -114 15 -235 20 -320 6 -99 13 -213 20 -325 3
-47 8 -119 10 -160 6 -94 14 -224 20 -315 2 -38 7 -115 10 -170 3 -55 8 -125
10 -155 2 -30 7 -98 10 -150 3 -52 8 -129 10 -170 8 -132 24 -384 30 -470 2
-30 7 -109 10 -175 4 -66 9 -138 11 -160 2 -22 4 -66 5 -97 l2 -58 168 0 c93
0 169 -3 170 -7 0 -5 2 -16 4 -25 2 -10 6 -64 10 -120 3 -57 8 -123 10 -148 2
-25 6 -85 10 -135 5 -85 12 -182 20 -285 5 -64 17 -239 19 -275 l1 -30 1853
-3 c1018 -1 1853 1 1854 5 2 10 4 38 12 158 4 55 9 123 11 150 2 28 7 86 10
130 6 90 13 193 20 275 7 97 17 234 18 270 l2 35 169 5 c140 4 169 8 171 20 1
8 6 71 10 140 3 69 8 141 10 160 2 19 6 87 9 150 4 63 9 142 11 175 3 33 7
101 10 150 7 122 14 246 20 330 3 39 7 111 10 160 3 50 7 119 10 155 2 36 7
108 10 160 6 99 13 209 20 320 3 36 7 110 10 165 3 55 7 125 10 155 2 30 7
102 10 160 4 58 8 130 10 160 2 30 6 102 10 160 3 58 8 128 10 155 7 89 18
299 19 359 l1 60 -152 0 -152 1 4 50 c2 27 7 86 10 130 3 44 8 107 10 140 3
33 7 96 10 140 5 74 9 125 20 280 2 33 7 103 10 155 3 52 8 104 10 115 4 19
12 20 222 20 l218 0 0 410 0 410 -405 1 c-223 1 -408 2 -411 3 -4 1 -7 178 -7
394 0 215 -1 400 -1 410 -1 16 -96 17 -1853 17 l-1853 0 1 -410z"/>
</g>
</svg>
