<?xml version="1.0" encoding="UTF-8"?>
<svg width="32px" height="32px" viewBox="0 0 32 32" version="1.1" xmlns="http://www.w3.org/2000/svg" xmlns:xlink="http://www.w3.org/1999/xlink">
    <!-- Generator: Sketch 63.1 (92452) - https://sketch.com -->
    <title>💟icons-category/bag2</title>
    <desc>Created with Sketch.</desc>
    <g id="💟icons-category/bag2" stroke="none" stroke-width="1" fill="none" fill-rule="evenodd">
        <g id="bag" transform="translate(4.000000, 3.000000)" fill="#494949">
            <path d="M22.5404928,5.6448 C22.53888,5.3964288 22.4630784,5.1545088 22.25664,4.99968 L19.6422912,3.0385152 L20.8309248,1.2547584 C20.9970432,1.008 21.0115584,0.6886656 20.869632,0.427392 C20.7309312,0.1645056 20.458368,0 20.16,0 L2.4192,0 C2.120832,0 1.8482688,0.1645056 1.7079552,0.4257792 C1.5676416,0.6870528 1.5837696,1.0063872 1.7482752,1.2531456 L2.9385216,3.0369024 L0.32256,4.99968 C0.1161216,5.1545088 0.04032,5.3964288 0.0387072,5.6448 L0,5.6448 L0,22.5792 C0,24.3581184 1.4466816,25.8048 3.2256,25.8048 L19.3536,25.8048 C21.1325184,25.8048 22.5792,24.3581184 22.5792,22.5792 L22.5792,5.6448 L22.5404928,5.6448 Z M17.7408,12.9024 C17.7408,16.4602368 14.8474368,19.3536 11.2896,19.3536 C7.7317632,19.3536 4.8384,16.4602368 4.8384,12.9024 L4.8384,10.4832 C4.8384,10.0380672 5.1996672,9.6768 5.6448,9.6768 C6.0899328,9.6768 6.4512,10.0380672 6.4512,10.4832 L6.4512,12.9024 C6.4512,15.5699712 8.6220288,17.7408 11.2896,17.7408 C13.9571712,17.7408 16.128,15.5699712 16.128,12.9024 L16.128,10.4832 C16.128,10.0380672 16.4892672,9.6768 16.9344,9.6768 C17.3795328,9.6768 17.7408,10.0380672 17.7408,10.4832 L17.7408,12.9024 Z M3.2256,4.8384 L4.51584,3.87072 C4.8577536,3.6142848 4.9400064,3.1336704 4.7029248,2.7788544 L3.9255552,1.6128 L18.652032,1.6128 L17.8762752,2.7788544 C17.6391936,3.1336704 17.7198336,3.6142848 18.06336,3.87072 L19.3536,4.8384 L3.2256,4.8384 Z" id="Shape"></path>
        </g>
    </g>
</svg>