<?xml version="1.0" encoding="UTF-8"?>
<svg width="32px" height="32px" viewBox="0 0 32 32" version="1.1" xmlns="http://www.w3.org/2000/svg" xmlns:xlink="http://www.w3.org/1999/xlink">
    <!-- Generator: Sketch 63.1 (92452) - https://sketch.com -->
    <title>💟icons-category/sport</title>
    <desc>Created with Sketch.</desc>
    <g id="💟icons-category/sport" stroke="none" stroke-width="1" fill="none" fill-rule="evenodd">
        <path d="M25.0479285,7 C26.1267262,7 27,7.97697744 27,9.18633882 L27,9.18633882 L27,23.8136612 C27,25.0198062 26.1267262,26 25.0479285,26 C23.9723802,26 23.0966694,25.0198062 23.0966694,23.8136612 L23.0966694,23.8136612 L23.0966694,19.2605696 L8.90251828,19.2605696 L8.90251828,23.8136612 C8.90251828,25.0198062 8.02680747,26 6.95125914,26 C5.87246141,26 5,25.0198062 5,23.8136612 L5,23.8136612 L5,9.18633882 C5,7.98019383 5.87246141,7 6.95125914,7 C8.02680747,7 8.90251828,7.97697744 8.90251828,9.18312243 L8.90251828,9.18312243 L8.90251828,13.736214 L23.0966694,13.736214 L23.0966694,9.18633882 C23.0966694,7.97697744 23.9723802,7 25.0479285,7 Z M29.589471,10 C30.3674793,10 31,10.6416224 31,11.4388858 L31,11.4388858 L31,21.5634964 C31,22.3575835 30.3674793,23 29.589471,23 L29.589471,23 L29.407417,23 C28.6294087,23 28,22.3544072 28,21.5603201 L28,21.5603201 L28,11.4357095 C28,10.6416224 28.6294087,10 29.407417,10 L29.407417,10 Z M2.59257692,10 C3.37058225,10 4.00310059,10.6416224 4,11.4388858 L4,11.4388858 L4,21.5634964 C4,22.3575835 3.37058225,23 2.59257692,23 L2.59257692,23 L2.41052367,23 C1.63251834,23 1,22.3575835 1,21.5603201 L1,21.5603201 L1,11.4357095 C1,10.6416224 1.63251834,10 2.41052367,10 L2.41052367,10 Z" id="Combined-Shape" fill="#494949"></path>
    </g>
</svg>